<svg xmlns="http://www.w3.org/2000/svg" viewBox="0 0 194.26 66.17"><defs><style>.a,.d{fill:none;}.b{fill:#fff;}.c{fill:#010101;}.d{stroke:#010101;stroke-miterlimit:10;stroke-width:0.35px;}.e{font-size:33.99px;fill:#414042;font-family:Blanka-Regular, Blanka;}.f{font-size:28.33px;}</style></defs><title>side ways</title><line class="a" x1="7.28" y1="33.08" x2="6.94" y2="31.67"/><path class="b" d="M23,41.8V70.13l-8-17.25L11.25,37.49l.22-.24L11.15,37l-.34-1.41A9.12,9.12,0,0,0,11.74,37a10.43,10.43,0,0,0,.88,1l.3.28A14.43,14.43,0,0,0,23,41.8Z" transform="translate(-3.87 -3.96)"/><path class="b" d="M34.72,37.08l-.26.17.17.19L30.94,52.88,23.08,69.76l-.14.3v0l0,0V41.8A14.4,14.4,0,0,0,33,38.13l.16-.15a12.79,12.79,0,0,0,1-1,8.77,8.77,0,0,0,.9-1.3Z" transform="translate(-3.87 -3.96)"/><polygon class="c" points="4.08 45.33 8.46 42.05 3.58 37.66 7.38 33.53 7.6 33.29 7.87 33.01 8.46 32.36 9.01 34.1 9.05 34.25 19.09 66.17 4.08 45.33"/><polygon class="c" points="29.73 42.05 34.11 45.33 19.09 66.17 19.21 65.81 29.16 34.18 29.18 34.1 29.73 32.36 30.3 32.98 30.59 33.29 30.76 33.48 34.62 37.66 29.73 42.05"/><polygon class="c" points="14.81 37.85 19.09 40.36 14.81 42.87 14.81 37.85"/><polygon class="c" points="23.38 37.85 19.09 40.36 23.38 42.87 23.38 37.85"/><ellipse class="c" cx="19.1" cy="40.36" rx="0.79" ry="0.8"/><ellipse class="c" cx="18.81" cy="58.35" rx="0.6" ry="0.61"/><ellipse class="c" cx="18.81" cy="54.25" rx="0.6" ry="0.61"/><ellipse class="c" cx="18.81" cy="50.14" rx="0.6" ry="0.61"/><ellipse class="c" cx="18.81" cy="46.04" rx="0.6" ry="0.61"/><path class="c" d="M12.61,5.45c1.55,1.82,3.88,7.44,2.23,9.15-2.14,2.2-7.18-.73-9-2.3a4.7,4.7,0,0,1,0-6.84A4.55,4.55,0,0,1,12.61,5.45Z" transform="translate(-3.87 -3.96)"/><path class="b" d="M22.75,41.06h0Z" transform="translate(-3.87 -3.96)"/><path class="c" d="M32.79,5.45c-1.55,1.82-3.87,7.44-2.22,9.15,2.13,2.2,7.18-.73,9-2.3a4.69,4.69,0,0,0,0-6.84A4.55,4.55,0,0,0,32.79,5.45Z" transform="translate(-3.87 -3.96)"/><path class="b" d="M34.72,37.08l-.26.17c-.42.26-.84.5-1.27.73l-.14.07A22.85,22.85,0,0,1,23,40.8h-.09a23,23,0,0,1-10-2.74l-.26-.14c-.39-.21-.77-.44-1.15-.67L11.15,37c-5-3.2-8.62-8.39-6.81-15.36A18.79,18.79,0,0,1,22.92,7.2H23A18.8,18.8,0,0,1,41.59,21.68C43.41,28.68,39.71,33.88,34.72,37.08Z" transform="translate(-3.87 -3.96)"/><path class="b" d="M22.7,41.07h0Z" transform="translate(-3.87 -3.96)"/><path class="c" d="M36.32,22.42h-.76c-.66-1.82-2.26-2.37-4-2.49s-3.66,0-5.5,0c-1.1,0-2.2,0-3.3-.05s-2.21.05-3.31.05c-1.84,0-3.68-.11-5.5,0s-3.35.67-4,2.49H9.17v.43h.64a12.1,12.1,0,0,0,.59,3.32,3.74,3.74,0,0,0,3.83,2.55,7,7,0,0,0,5.61-2.87A11.14,11.14,0,0,0,21.77,22h1.95a11.14,11.14,0,0,0,1.93,3.9,7,7,0,0,0,5.61,2.87,3.74,3.74,0,0,0,3.83-2.55,12.1,12.1,0,0,0,.59-3.32h.64Zm-12.7-1.17H21.87l-1-.86h3.69Z" transform="translate(-3.87 -3.96)"/><path class="d" d="M30,32.56a4.9,4.9,0,0,1-4.33,2.31,3.44,3.44,0,0,1-2.9-1.18h0a3.48,3.48,0,0,1-2.91,1.18,4.9,4.9,0,0,1-4.32-2.31" transform="translate(-3.87 -3.96)"/><path class="c" d="M27.16,30.54c0,1.5-2.6,1.64-4.41,3-1.82-1.32-4.42-1.46-4.42-3a1.29,1.29,0,0,1,1.48-1.38h5.87A1.29,1.29,0,0,1,27.16,30.54Z" transform="translate(-3.87 -3.96)"/><path class="b" d="M24.46,36.6a2.88,2.88,0,0,0,.08-1.11c-.12-.36-.42.54-.64,1A1.69,1.69,0,0,0,24.46,36.6Z" transform="translate(-3.87 -3.96)"/><path class="b" d="M23.69,36.32a2.16,2.16,0,0,0-.05-.88c-.13-.27-.27.47-.4.87A1.49,1.49,0,0,0,23.69,36.32Z" transform="translate(-3.87 -3.96)"/><path class="c" d="M12.49,20.16s.32-3.22,2.15-3,3.6,3.58,4.68,4.33-5.46,0-5.46,0Z" transform="translate(-3.87 -3.96)"/><path class="c" d="M32.86,20.16s-.32-3.22-2.15-3-3.6,3.58-4.68,4.33,5.46,0,5.46,0Z" transform="translate(-3.87 -3.96)"/><text class="e" transform="translate(41.44 48.92) scale(0.91 1)">P<tspan class="f" x="19.24" y="0">AND</tspan><tspan x="76.12" y="0">A</tspan><tspan class="f" x="98.56" y="0">TTIRE</tspan></text></svg>